# xmcd
#
# Track frame offsets: 
#        150
#        18145
#        28850
#        45100
#        58442
#        72465
#        89005
#        101755
#        117165
#        130275
#        150020
#        165157
#        178910
#        196272
#        209677
#        223420
#
# Disc length: 3153 seconds
#
# Revision: 0
# Processed by: cddbd v1.5.1PL2 Copyright (c) Steve Scherf et al.
# Submitted via: ExactAudioCopy v0.95a5
#
DISCID=e40c4f10
DTITLE=Various Artist - Country Hall Of Fame
DYEAR=1996
DGENRE=Country
TTITLE0=Barbara Fairchild/Mississippi
TTITLE1=Bobby Bare/Rock And Roll Hotel
TTITLE2=Charlie Daniel's Band/The Devil Went Down To Georgia
TTITLE3=Charlie Rich/Behind Closed  Doors
TTITLE4=Georges Jones/The Ground Tour
TTITLE5=Johnny Cash/A Boy Named Sue
TTITLE6=Johnny Horton/North To Alaska
TTITLE7=Lacy J. Dalton/Takin' It Easy
TTITLE8=Lynn Anderson/Rose Garden
TTITLE9=Marty Robbins/El Paso
TTITLE10=Mary Chapin Carpenter/Passionate Kisses
TTITLE11=Merle Haggard/That's The Way Love Goes
TTITLE12=Ricky Skaggs/Country Boy
TTITLE13=Tammy Wynette/D.I.V.O.R.C.E.
TTITLE14=Tanya Tucker/Blood Red And Goin' Down
TTITLE15=Willie Nelson and Waylon Jennings/Good Harted Woman
EXTD=
EXTT0=
EXTT1=
EXTT2=
EXTT3=
EXTT4=
EXTT5=
EXTT6=
EXTT7=
EXTT8=
EXTT9=
EXTT10=
EXTT11=
EXTT12=
EXTT13=
EXTT14=
EXTT15=
PLAYORDER=
